<svg xmlns="http://www.w3.org/2000/svg" width="1291" height="1211" viewBox="0 0 1291 1211" fill="none"><script xmlns=""/><g opacity="0.2"><path d="M966.713 401.255L1024.97 342.994C1044.59 323.38 1031.06 306.874 1025.36 301.171L966.713 242.525V401.255Z" fill="#8A4BDB"/><path d="M807.088 242.499L865.343 184.244C884.963 164.65 901.489 178.171 907.192 183.853L965.838 242.499H807.088Z" fill="#5954CD"/><path d="M807.613 401.344L865.874 459.604C885.488 479.198 902.014 465.677 907.697 459.99L966.342 401.344H807.613Z" fill="#69E9F5"/><path d="M807.478 242.566L749.332 300.915C729.624 320.441 743.145 336.941 748.832 342.65L807.478 401.296V242.566Z" fill="#31BDC6"/></g><g opacity="0.2"><path d="M715.713 647.255L773.968 588.994C793.588 569.38 780.062 552.874 774.359 547.171L715.713 488.525V647.255Z" fill="#8A4BDB"/><path d="M556.088 488.499L614.343 430.244C633.963 410.65 650.489 424.171 656.192 429.853L714.838 488.499H556.088Z" fill="#5954CD"/><path d="M556.613 647.344L614.874 705.604C634.488 725.198 651.014 711.677 656.697 705.99L715.342 647.344H556.613Z" fill="#69E9F5"/><path d="M556.478 488.566L498.332 546.915C478.624 566.441 492.145 582.941 497.832 588.65L556.478 647.296V488.566Z" fill="#31BDC6"/></g><g opacity="0.2"><path d="M470.713 894.255L528.968 835.994C548.588 816.38 535.062 799.874 529.359 794.171L470.713 735.525V894.255Z" fill="#8A4BDB"/><path d="M311.088 735.499L369.343 677.244C388.963 657.65 405.489 671.171 411.192 676.853L469.838 735.499H311.088Z" fill="#5954CD"/><path d="M311.613 894.344L369.874 952.604C389.488 972.198 406.014 958.677 411.697 952.99L470.342 894.344H311.613Z" fill="#69E9F5"/><path d="M311.478 735.566L253.332 793.915C233.624 813.441 247.145 829.941 252.832 835.65L311.478 894.296V735.566Z" fill="#31BDC6"/></g><path opacity="0.2" d="M1221.71 158.729L1279.97 100.469C1299.59 80.8542 1286.06 64.349 1280.36 58.6458L1221.71 0V158.729Z" fill="#8A4BDB"/><path opacity="0.2" d="M1062.61 158.816L1120.87 217.077C1140.49 236.671 1157.01 223.15 1162.7 217.462L1221.34 158.816H1062.61Z" fill="#69E9F5"/><path opacity="0.2" d="M1062.48 0.0410156L1004.33 58.39C984.624 77.916 998.145 94.416 1003.83 100.124L1062.48 158.77V0.0410156Z" fill="#31BDC6"/><g opacity="0.2"><path d="M227.713 1142.25L285.968 1083.99C305.588 1064.38 292.062 1047.87 286.359 1042.17L227.713 983.525V1142.25Z" fill="#69E9F5"/><path d="M68.0879 983.499L126.343 925.244C145.963 905.65 162.489 919.171 168.192 924.853L226.838 983.499H68.0879Z" fill="#69E9F5"/><path d="M68.6133 1142.34L126.874 1200.6C146.488 1220.2 163.014 1206.68 168.697 1200.99L227.342 1142.34H68.6133Z" fill="#69E9F5"/><path d="M68.478 983.566L10.3321 1041.92C-9.37621 1061.44 4.14462 1077.94 9.83212 1083.65L68.478 1142.3V983.566Z" fill="#31BDC6"/></g><script xmlns=""/></svg>