<svg width="41" height="40" viewBox="0 0 41 40" fill="none" xmlns="http://www.w3.org/2000/svg">
<path d="M20.5999 35C22.5697 35 24.5202 34.612 26.3401 33.8582C28.16 33.1044 29.8136 31.9995 31.2065 30.6066C32.5993 29.2137 33.7042 27.5602 34.458 25.7403C35.2119 23.9204 35.5999 21.9698 35.5999 20C35.5999 18.0302 35.2119 16.0796 34.458 14.2598C33.7042 12.4399 32.5993 10.7863 31.2065 9.39341C29.8136 8.00053 28.16 6.89564 26.3401 6.14182C24.5202 5.388 22.5697 5.00002 20.5999 5.00002M20.5999 35C18.63 35 16.6795 34.612 14.8596 33.8582C13.0397 33.1044 11.3861 31.9995 9.99325 30.6066C8.60037 29.2137 7.49548 27.5602 6.74166 25.7403C5.98784 23.9204 5.59985 21.9698 5.59985 20C5.59985 18.0302 5.98784 16.0796 6.74166 14.2598C7.49548 12.4399 8.60037 10.7863 9.99325 9.39341C11.3861 8.00053 13.0397 6.89564 14.8596 6.14182C16.6795 5.388 18.63 5.00002 20.5999 5.00002M20.5999 35C25.2015 35 27.1682 26.395 27.1682 20C27.1682 13.605 25.2015 5.00002 20.5999 5.00002M20.5999 35C15.9982 35 14.0315 26.395 14.0315 20C14.0315 13.605 15.9982 5.00002 20.5999 5.00002M6.43319 15H34.7665M6.43319 25H34.7665" stroke="#69E9F5" stroke-width="2.5" stroke-linecap="round" stroke-linejoin="round"/>
</svg>
